<?xml version="1.0" encoding="UTF-8"?>
<svg width="80px" height="55px" viewBox="0 0 80 55" version="1.1" xmlns="http://www.w3.org/2000/svg" xmlns:xlink="http://www.w3.org/1999/xlink">
    <!-- Generator: Sketch 52.5 (67469) - http://www.bohemiancoding.com/sketch -->
    <title>empty</title>
    <desc>Created with Sketch.</desc>
    <g id="Page-1" stroke="none" stroke-width="1" fill="none" fill-rule="evenodd">
        <g id="empty">
            <rect id="Rectangle" fill="#EEEEEE" x="0" y="0" width="80" height="55" rx="5"></rect>
            <rect id="Rectangle-Copy" fill="#C0C5CA" x="4" y="4" width="72" height="47" rx="3"></rect>
            <path id="Line" d="M18.1486486,27 L20.6486486,27 C20.924791,27 21.1486486,27.2238576 21.1486486,27.5 C21.1486486,27.7761424 20.924791,28 20.6486486,28 L18.1486486,28 L18.1486486,31.5 C18.1486486,31.7761424 17.924791,32 17.6486486,32 C17.3725063,32 17.1486486,31.7761424 17.1486486,31.5 L17.1486486,23.5 C17.1486486,23.2238576 17.3725063,23 17.6486486,23 C17.924791,23 18.1486486,23.2238576 18.1486486,23.5 L18.1486486,27 Z M61.9999996,28 L59.6486486,28 C59.3725063,28 59.1486486,27.7761424 59.1486486,27.5 C59.1486486,27.2238576 59.3725063,27 59.6486486,27 L61.9999996,27 L61.9999996,23.5 C61.9999996,23.2238576 62.2238573,23 62.4999996,23 C62.776142,23 62.9999996,23.2238576 62.9999996,23.5 L62.9999996,31.5 C62.9999996,31.7761424 62.776142,32 62.4999996,32 C62.2238573,32 61.9999996,31.7761424 61.9999996,31.5 L61.9999996,28 Z M23.6486486,28 C23.3725063,28 23.1486486,27.7761424 23.1486486,27.5 C23.1486486,27.2238576 23.3725063,27 23.6486486,27 L26.6486486,27 C26.924791,27 27.1486486,27.2238576 27.1486486,27.5 C27.1486486,27.7761424 26.924791,28 26.6486486,28 L23.6486486,28 Z M29.6486486,28 C29.3725063,28 29.1486486,27.7761424 29.1486486,27.5 C29.1486486,27.2238576 29.3725063,27 29.6486486,27 L32.6486486,27 C32.924791,27 33.1486486,27.2238576 33.1486486,27.5 C33.1486486,27.7761424 32.924791,28 32.6486486,28 L29.6486486,28 Z M35.6486486,28 C35.3725063,28 35.1486486,27.7761424 35.1486486,27.5 C35.1486486,27.2238576 35.3725063,27 35.6486486,27 L38.6486486,27 C38.924791,27 39.1486486,27.2238576 39.1486486,27.5 C39.1486486,27.7761424 38.924791,28 38.6486486,28 L35.6486486,28 Z M41.6486486,28 C41.3725063,28 41.1486486,27.7761424 41.1486486,27.5 C41.1486486,27.2238576 41.3725063,27 41.6486486,27 L44.6486486,27 C44.924791,27 45.1486486,27.2238576 45.1486486,27.5 C45.1486486,27.7761424 44.924791,28 44.6486486,28 L41.6486486,28 Z M47.6486486,28 C47.3725063,28 47.1486486,27.7761424 47.1486486,27.5 C47.1486486,27.2238576 47.3725063,27 47.6486486,27 L50.6486486,27 C50.924791,27 51.1486486,27.2238576 51.1486486,27.5 C51.1486486,27.7761424 50.924791,28 50.6486486,28 L47.6486486,28 Z M53.6486486,28 C53.3725063,28 53.1486486,27.7761424 53.1486486,27.5 C53.1486486,27.2238576 53.3725063,27 53.6486486,27 L56.6486486,27 C56.924791,27 57.1486486,27.2238576 57.1486486,27.5 C57.1486486,27.7761424 56.924791,28 56.6486486,28 L53.6486486,28 Z" fill="#FFFFFF" fill-rule="nonzero" opacity="0.800000012"></path>
            <path d="M69,4 L76,4 L76,51 L69,51 C67.3431458,51 66,49.6568542 66,48 L66,7 C66,5.34314575 67.3431458,4 69,4 Z" id="Rectangle-Copy-2" fill="#0191FF" opacity="0.200000003" transform="translate(71.000000, 27.500000) scale(-1, 1) translate(-71.000000, -27.500000) "></path>
            <path d="M7,4 L14,4 L14,51 L7,51 C5.34314575,51 4,49.6568542 4,48 L4,7 C4,5.34314575 5.34314575,4 7,4 Z" id="Rectangle-Copy-3" fill="#0191FF" opacity="0.200000003"></path>
        </g>
    </g>
</svg>
